<svg width="24" height="25" viewBox="0 0 24 25" fill="none" xmlns="http://www.w3.org/2000/svg">
<path d="M15 23.0677H9C3.57 23.0677 1.25 20.7154 1.25 15.2097V9.12608C1.25 3.6204 3.57 1.26807 9 1.26807H15C20.43 1.26807 22.75 3.6204 22.75 9.12608V15.2097C22.75 20.7154 20.43 23.0677 15 23.0677ZM9 2.78897C4.39 2.78897 2.75 4.45183 2.75 9.12608V15.2097C2.75 19.884 4.39 21.5468 9 21.5468H15C19.61 21.5468 21.25 19.884 21.25 15.2097V9.12608C21.25 4.45183 19.61 2.78897 15 2.78897H9Z" fill="white"/>
<path d="M8.81023 18.505C8.74023 18.505 8.66023 18.505 8.59023 18.4847L7.40023 18.3225C6.68023 18.2211 6.05023 17.5924 5.94023 16.8421L5.77023 15.6153C5.70023 15.1286 5.90023 14.5101 6.25023 14.1451L8.53023 11.8333C8.19023 10.1907 8.68023 8.48729 9.87023 7.29084C11.7802 5.35422 14.9002 5.35422 16.8102 7.29084C17.7402 8.23381 18.2502 9.48095 18.2502 10.8092C18.2502 12.1375 17.7402 13.3947 16.8102 14.3276C15.6202 15.524 13.9402 16.0208 12.3302 15.6761L10.0402 17.9879C9.75023 18.3022 9.26023 18.505 8.81023 18.505ZM13.3402 7.35168C12.4702 7.35168 11.5902 7.68628 10.9302 8.36562C10.0302 9.27816 9.71023 10.6064 10.0802 11.8434C10.1602 12.1172 10.0902 12.4011 9.89023 12.6039L7.31023 15.2198C7.29023 15.2503 7.25023 15.3618 7.25023 15.4023L7.42023 16.6191C7.43023 16.6799 7.54023 16.7914 7.60023 16.8016L8.80023 16.9739C8.85023 16.9638 8.95023 16.9435 8.98023 16.9131L11.5702 14.287C11.7702 14.0842 12.0602 14.0234 12.3202 14.1045C13.5302 14.4898 14.8402 14.1653 15.7402 13.2528C16.3802 12.6039 16.7402 11.7319 16.7402 10.8092C16.7402 9.88652 16.3902 9.01454 15.7402 8.36562C15.0902 7.69642 14.2102 7.35168 13.3402 7.35168Z" fill="white"/>
<path d="M10.4498 17.2678C10.2598 17.2678 10.0698 17.1968 9.91978 17.0447L9.05979 16.1727C8.76979 15.8787 8.76979 15.392 9.05979 15.098C9.34979 14.8039 9.82978 14.8039 10.1198 15.098L10.9798 15.97C11.2698 16.264 11.2698 16.7507 10.9798 17.0447C10.8398 17.1968 10.6498 17.2678 10.4498 17.2678Z" fill="white"/>
<path d="M13.3801 11.9647C13.2401 11.9647 13.1101 11.9444 12.9901 11.8937C12.8701 11.843 12.7601 11.7619 12.6701 11.6707C12.4801 11.478 12.3701 11.2245 12.3701 10.9508C12.3701 10.6872 12.4801 10.4235 12.6701 10.241C12.9001 9.99768 13.2501 9.88615 13.5701 9.95712C13.6301 9.9774 13.7001 9.98754 13.7601 10.018C13.8201 10.0484 13.8801 10.0788 13.9301 10.1092C13.9801 10.1498 14.0401 10.1903 14.0801 10.241C14.2701 10.4235 14.3801 10.6872 14.3801 10.9508C14.3801 11.0927 14.3501 11.2144 14.3001 11.3462C14.2501 11.4679 14.1801 11.5794 14.0801 11.6707C13.8901 11.8633 13.6401 11.9647 13.3801 11.9647Z" fill="white"/>
</svg>
