<svg width="24" height="25" viewBox="0 0 24 25" fill="none" xmlns="http://www.w3.org/2000/svg">
<path d="M12 12.9283C8.83 12.9283 6.25 10.3124 6.25 7.09821C6.25 3.88402 8.83 1.26807 12 1.26807C15.17 1.26807 17.75 3.88402 17.75 7.09821C17.75 10.3124 15.17 12.9283 12 12.9283ZM12 2.78897C9.66 2.78897 7.75 4.72559 7.75 7.09821C7.75 9.47082 9.66 11.4074 12 11.4074C14.34 11.4074 16.25 9.47082 16.25 7.09821C16.25 4.72559 14.34 2.78897 12 2.78897Z" fill="white"/>
<path d="M15.8201 23.0676C15.4401 23.0676 15.0801 22.9257 14.8201 22.662C14.5101 22.3477 14.3701 21.8915 14.4401 21.4149L14.6301 20.0461C14.6801 19.6912 14.8901 19.2755 15.1401 19.0119L18.68 15.4226C20.1 13.9828 21.3501 14.8041 21.9601 15.4226C22.4801 15.9498 22.7501 16.5176 22.7501 17.0854C22.7501 17.6633 22.4901 18.2007 21.9601 18.7381L18.42 22.3275C18.17 22.581 17.7501 22.7939 17.4001 22.8446L16.05 23.0372C15.97 23.0575 15.9001 23.0676 15.8201 23.0676ZM20.31 16.1424C20.13 16.1424 19.97 16.2641 19.74 16.4973L16.2001 20.0866C16.1701 20.1171 16.12 20.2184 16.12 20.259L15.9401 21.5264L17.1901 21.3439C17.2301 21.3338 17.33 21.2831 17.36 21.2527L20.9001 17.6633C21.0601 17.5011 21.2501 17.2679 21.2501 17.0854C21.2501 16.9333 21.1301 16.7204 20.9001 16.4973C20.6601 16.254 20.48 16.1424 20.31 16.1424Z" fill="white"/>
<path d="M20.9201 19.4885C20.8501 19.4885 20.7801 19.4783 20.7201 19.4581C19.4001 19.0829 18.3501 18.0183 17.9801 16.6799C17.8701 16.2743 18.1001 15.8586 18.5001 15.7471C18.9001 15.6355 19.3101 15.8687 19.4201 16.2743C19.6501 17.1057 20.3001 17.7648 21.1201 17.998C21.5201 18.1095 21.7501 18.5354 21.6401 18.9308C21.5501 19.2654 21.2501 19.4885 20.9201 19.4885Z" fill="white"/>
<path d="M3.41016 23.0677C3.00016 23.0677 2.66016 22.7229 2.66016 22.3072C2.66016 17.9777 6.85018 14.4492 12.0002 14.4492C13.0902 14.4492 14.1702 14.6115 15.1802 14.9157C15.5802 15.0373 15.8002 15.4632 15.6802 15.8586C15.5602 16.2642 15.1402 16.4872 14.7502 16.3656C13.8702 16.102 12.9502 15.96 12.0002 15.96C7.68018 15.96 4.16016 18.799 4.16016 22.2971C4.16016 22.7229 3.82016 23.0677 3.41016 23.0677Z" fill="white"/>
</svg>
