<svg width="24" height="25" viewBox="0 0 24 25" fill="none" xmlns="http://www.w3.org/2000/svg">
<path d="M8 5.83078C7.59 5.83078 7.25 5.48605 7.25 5.07033V2.02852C7.25 1.61281 7.59 1.26807 8 1.26807C8.41 1.26807 8.75 1.61281 8.75 2.02852V5.07033C8.75 5.48605 8.41 5.83078 8 5.83078Z" fill="white"/>
<path d="M16 5.83078C15.59 5.83078 15.25 5.48605 15.25 5.07033V2.02852C15.25 1.61281 15.59 1.26807 16 1.26807C16.41 1.26807 16.75 1.61281 16.75 2.02852V5.07033C16.75 5.48605 16.41 5.83078 16 5.83078Z" fill="white"/>
<path d="M8.5 14.7024C8.37 14.7024 8.24 14.672 8.12 14.6213C7.99 14.5706 7.89 14.4996 7.79 14.4084C7.61 14.2157 7.5 13.9623 7.5 13.6885C7.5 13.5567 7.53 13.4249 7.58 13.3032C7.63 13.1815 7.7 13.07 7.79 12.9686C7.89 12.8773 7.99 12.8063 8.12 12.7557C8.48 12.6036 8.93 12.6847 9.21 12.9686C9.39 13.1612 9.5 13.4249 9.5 13.6885C9.5 13.7493 9.49 13.8203 9.48 13.8913C9.47 13.9521 9.45 14.013 9.42 14.0738C9.4 14.1346 9.37 14.1955 9.33 14.2563C9.3 14.307 9.25 14.3577 9.21 14.4084C9.02 14.5909 8.76 14.7024 8.5 14.7024Z" fill="white"/>
<path d="M12 14.7025C11.87 14.7025 11.74 14.6721 11.62 14.6214C11.49 14.5707 11.39 14.4997 11.29 14.4085C11.11 14.2158 11 13.9624 11 13.6886C11 13.5568 11.03 13.425 11.08 13.3033C11.13 13.1816 11.2 13.0701 11.29 12.9687C11.39 12.8775 11.49 12.8065 11.62 12.7558C11.98 12.5935 12.43 12.6848 12.71 12.9687C12.89 13.1614 13 13.425 13 13.6886C13 13.7494 12.99 13.8204 12.98 13.8914C12.97 13.9522 12.95 14.0131 12.92 14.0739C12.9 14.1347 12.87 14.1956 12.83 14.2564C12.8 14.3071 12.75 14.3578 12.71 14.4085C12.52 14.591 12.26 14.7025 12 14.7025Z" fill="white"/>
<path d="M15.5 14.7025C15.37 14.7025 15.24 14.6721 15.12 14.6214C14.99 14.5707 14.89 14.4997 14.79 14.4085C14.75 14.3578 14.71 14.3071 14.67 14.2564C14.63 14.1956 14.6 14.1347 14.58 14.0739C14.55 14.0131 14.53 13.9522 14.52 13.8914C14.51 13.8204 14.5 13.7494 14.5 13.6886C14.5 13.425 14.61 13.1614 14.79 12.9687C14.89 12.8775 14.99 12.8065 15.12 12.7558C15.49 12.5935 15.93 12.6848 16.21 12.9687C16.39 13.1614 16.5 13.425 16.5 13.6886C16.5 13.7494 16.49 13.8204 16.48 13.8914C16.47 13.9522 16.45 14.0131 16.42 14.0739C16.4 14.1347 16.37 14.1956 16.33 14.2564C16.3 14.3071 16.25 14.3578 16.21 14.4085C16.02 14.591 15.76 14.7025 15.5 14.7025Z" fill="white"/>
<path d="M8.5 18.2515C8.37 18.2515 8.24 18.2211 8.12 18.1704C8 18.1197 7.89 18.0487 7.79 17.9575C7.61 17.7648 7.5 17.5012 7.5 17.2376C7.5 17.1058 7.53 16.974 7.58 16.8523C7.63 16.7205 7.7 16.609 7.79 16.5177C8.16 16.1425 8.84 16.1425 9.21 16.5177C9.39 16.7103 9.5 16.974 9.5 17.2376C9.5 17.5012 9.39 17.7648 9.21 17.9575C9.02 18.14 8.76 18.2515 8.5 18.2515Z" fill="white"/>
<path d="M12 18.2515C11.74 18.2515 11.48 18.14 11.29 17.9575C11.11 17.7648 11 17.5012 11 17.2376C11 17.1058 11.03 16.974 11.08 16.8523C11.13 16.7205 11.2 16.609 11.29 16.5177C11.66 16.1425 12.34 16.1425 12.71 16.5177C12.8 16.609 12.87 16.7205 12.92 16.8523C12.97 16.974 13 17.1058 13 17.2376C13 17.5012 12.89 17.7648 12.71 17.9575C12.52 18.14 12.26 18.2515 12 18.2515Z" fill="white"/>
<path d="M15.5 18.2514C15.24 18.2514 14.98 18.1399 14.79 17.9574C14.7 17.8661 14.63 17.7546 14.58 17.6228C14.53 17.5011 14.5 17.3693 14.5 17.2375C14.5 17.1057 14.53 16.9739 14.58 16.8522C14.63 16.7204 14.7 16.6089 14.79 16.5176C15.02 16.2844 15.37 16.1729 15.69 16.2438C15.76 16.254 15.82 16.2742 15.88 16.3047C15.94 16.3249 16 16.3554 16.06 16.3959C16.11 16.4264 16.16 16.4771 16.21 16.5176C16.39 16.7103 16.5 16.9739 16.5 17.2375C16.5 17.5011 16.39 17.7647 16.21 17.9574C16.02 18.1399 15.76 18.2514 15.5 18.2514Z" fill="white"/>
<path d="M20.5 9.97745H3.5C3.09 9.97745 2.75 9.63271 2.75 9.217C2.75 8.80128 3.09 8.45654 3.5 8.45654H20.5C20.91 8.45654 21.25 8.80128 21.25 9.217C21.25 9.63271 20.91 9.97745 20.5 9.97745Z" fill="white"/>
<path d="M16 23.0673H8C4.35 23.0673 2.25 20.9381 2.25 17.2372V8.61871C2.25 4.91784 4.35 2.78857 8 2.78857H16C19.65 2.78857 21.75 4.91784 21.75 8.61871V17.2372C21.75 20.9381 19.65 23.0673 16 23.0673ZM8 4.30948C5.14 4.30948 3.75 5.71885 3.75 8.61871V17.2372C3.75 20.137 5.14 21.5464 8 21.5464H16C18.86 21.5464 20.25 20.137 20.25 17.2372V8.61871C20.25 5.71885 18.86 4.30948 16 4.30948H8Z" fill="white"/>
</svg>
