<svg width="25" height="25" viewBox="0 0 35 35" fill="none" xmlns="http://www.w3.org/2000/svg">
<path d="M2.98488 35C2.22618 35 1.46748 34.7206 0.868511 34.1218C-0.289504 32.9641 -0.289504 31.0479 0.868511 29.8902L29.8987 0.868264C31.0568 -0.289421 32.9735 -0.289421 34.1315 0.868264C35.2895 2.02595 35.2895 3.94212 34.1315 5.0998L5.10125 34.1218C4.54221 34.7206 3.78351 35 2.98488 35Z" fill="white"/>
<path d="M32.0151 35C31.2564 35 30.4977 34.7206 29.8987 34.1218L0.868511 5.0998C-0.289504 3.94212 -0.289504 2.02595 0.868511 0.868264C2.02653 -0.289421 3.94324 -0.289421 5.10125 0.868264L34.1315 29.8902C35.2895 31.0479 35.2895 32.9641 34.1315 34.1218C33.5325 34.7206 32.7738 35 32.0151 35Z" fill="white"/>
</svg>
