<svg width="24" height="144" viewBox="0 0 24 144" fill="none" xmlns="http://www.w3.org/2000/svg">
<path d="M4.99988 61.8699C4.25988 61.8699 3.52988 61.5899 2.96988 61.0299C2.42988 60.4899 2.12988 59.7699 2.12988 58.9999C2.12988 58.2299 2.42988 57.5099 2.96988 56.9699L15.9699 43.9699C17.0899 42.8499 18.9099 42.8499 20.0299 43.9699C20.5699 44.5099 20.8699 45.2299 20.8699 45.9999C20.8699 46.7699 20.5699 47.4899 20.0299 48.0299L7.02988 61.0299C6.46988 61.5899 5.73988 61.8699 4.99988 61.8699ZM17.9999 44.6299C17.6499 44.6299 17.2999 44.7599 17.0299 45.0299L4.02988 58.0299C3.76988 58.2899 3.62988 58.6299 3.62988 58.9999C3.62988 59.3699 3.76988 59.7099 4.02988 59.9699C4.55988 60.4999 5.43988 60.4999 5.96988 59.9699L18.9699 46.9699C19.2299 46.7099 19.3699 46.3699 19.3699 45.9999C19.3699 45.6299 19.2299 45.2899 18.9699 45.0299C18.6999 44.7599 18.3499 44.6299 17.9999 44.6299Z" fill="white"/>
<path d="M18.01 49.7402C17.82 49.7402 17.63 49.6702 17.48 49.5202L14.48 46.5202C14.19 46.2302 14.19 45.7502 14.48 45.4602C14.77 45.1702 15.25 45.1702 15.54 45.4602L18.54 48.4602C18.83 48.7502 18.83 49.2302 18.54 49.5202C18.39 49.6702 18.2 49.7402 18.01 49.7402Z" fill="white"/>
<path d="M10.0001 45.5001C9.95005 45.5001 9.91005 45.4901 9.86005 45.4801L8.50005 45.0801L7.14005 45.4801C6.96005 45.5301 6.77005 45.4801 6.65005 45.3501C6.52005 45.2201 6.47005 45.0401 6.52005 44.8601L6.92005 43.5001L6.52005 42.1401C6.47005 41.9601 6.52005 41.7701 6.65005 41.6501C6.78005 41.5201 6.97005 41.4701 7.14005 41.5201L8.50005 41.9201L9.86005 41.5201C10.0401 41.4701 10.2201 41.5201 10.3501 41.6501C10.4801 41.7801 10.5301 41.9701 10.4801 42.1401L10.0801 43.5001L10.4801 44.8601C10.5301 45.0401 10.4801 45.2301 10.3501 45.3501C10.2601 45.4501 10.1301 45.5001 10.0001 45.5001ZM8.50005 44.0601C8.55005 44.0601 8.59005 44.0701 8.64005 44.0801L9.26005 44.2601L9.08005 43.6401C9.05005 43.5501 9.05005 43.4501 9.08005 43.3601L9.26005 42.7401L8.64005 42.9201C8.55005 42.9501 8.45005 42.9501 8.36005 42.9201L7.74005 42.7401L7.92005 43.3601C7.95005 43.4501 7.95005 43.5501 7.92005 43.6401L7.74005 44.2601L8.36005 44.0801C8.41005 44.0701 8.45005 44.0601 8.50005 44.0601Z" fill="white"/>
<path d="M6.00005 51.5001C5.95005 51.5001 5.91005 51.4901 5.86005 51.4801L4.50005 51.0801L3.14005 51.4801C2.96005 51.5301 2.78005 51.4801 2.65005 51.3501C2.52005 51.2201 2.47005 51.0301 2.52005 50.8601L2.92005 49.5001L2.52005 48.1401C2.47005 47.9601 2.52005 47.7701 2.65005 47.6501C2.78005 47.5301 2.97005 47.4701 3.14005 47.5201L4.50005 47.9201L5.86005 47.5201C6.03005 47.4701 6.22005 47.5201 6.35005 47.6501C6.48005 47.7801 6.53005 47.9701 6.48005 48.1401L6.08005 49.5001L6.48005 50.8601C6.53005 51.0401 6.48005 51.2301 6.35005 51.3501C6.26005 51.4501 6.13005 51.5001 6.00005 51.5001ZM4.50005 50.0601C4.55005 50.0601 4.59005 50.0701 4.64005 50.0801L5.26005 50.2601L5.08005 49.6401C5.05005 49.5501 5.05005 49.4501 5.08005 49.3601L5.26005 48.7401L4.64005 48.9201C4.55005 48.9501 4.45005 48.9501 4.36005 48.9201L3.74005 48.7401L3.92005 49.3601C3.95005 49.4501 3.95005 49.5501 3.92005 49.6401L3.74005 50.2601L4.36005 50.0801C4.41005 50.0701 4.45005 50.0601 4.50005 50.0601Z" fill="white"/>
<path d="M21.0001 56.5001C20.9501 56.5001 20.9101 56.4901 20.8601 56.4801L19.5001 56.0801L18.1401 56.4801C17.9601 56.5301 17.7801 56.4801 17.6501 56.3501C17.5201 56.2201 17.4701 56.0301 17.5201 55.8601L17.9201 54.5001L17.5201 53.1401C17.4701 52.9601 17.5201 52.7701 17.6501 52.6501C17.7801 52.5301 17.9701 52.4701 18.1401 52.5201L19.5001 52.9201L20.8601 52.5201C21.0301 52.4701 21.2201 52.5201 21.3501 52.6501C21.4801 52.7801 21.5301 52.9701 21.4801 53.1401L21.0801 54.5001L21.4801 55.8601C21.5301 56.0401 21.4801 56.2301 21.3501 56.3501C21.2601 56.4501 21.1301 56.5001 21.0001 56.5001ZM19.5001 55.0601C19.5501 55.0601 19.5901 55.0701 19.6401 55.0801L20.2601 55.2601L20.0801 54.6401C20.0501 54.5501 20.0501 54.4501 20.0801 54.3601L20.2601 53.7401L19.6401 53.9201C19.5501 53.9501 19.4501 53.9501 19.3601 53.9201L18.7401 53.7401L18.9201 54.3601C18.9501 54.4501 18.9501 54.5501 18.9201 54.6401L18.7401 55.2601L19.3601 55.0801C19.4101 55.0701 19.4501 55.0601 19.5001 55.0601Z" fill="white"/>
<path d="M10 96.75C9.59 96.75 9.25 96.41 9.25 96C9.25 94.33 9.25 92.25 13 92.25H17C19.25 92.25 19.25 91.95 19.25 90V88C19.25 86.05 19.25 85.75 17 85.75H16C15.59 85.75 15.25 85.41 15.25 85C15.25 84.59 15.59 84.25 16 84.25H17C20.5 84.25 20.75 85.67 20.75 88V90C20.75 92.33 20.5 93.75 17 93.75H13C10.75 93.75 10.75 94.36 10.75 96C10.75 96.41 10.41 96.75 10 96.75Z" fill="white"/>
<path d="M12 88.75H7.99996C7.67996 88.75 7.38996 88.54 7.28996 88.24C6.59996 86.15 6.59996 83.85 7.28996 81.77C7.38996 81.46 7.67996 81.25 7.99996 81.25H12C12.32 81.25 12.61 81.46 12.71 81.76C13.41 83.85 13.41 86.15 12.71 88.23C12.61 88.54 12.33 88.75 12 88.75ZM8.55996 87.25H11.45C11.84 85.78 11.84 84.22 11.45 82.75H8.55996C8.16996 84.22 8.16996 85.78 8.55996 87.25Z" fill="white"/>
<path d="M8 88.75H7C4.58 88.75 3.25 87.42 3.25 85C3.25 82.58 4.58 81.25 7 81.25H8C8.26 81.25 8.5 81.38 8.64 81.61C8.78 81.83 8.79 82.11 8.67 82.34C7.77 84.13 7.77 85.88 8.67 87.67C8.79 87.9 8.77 88.18 8.64 88.4C8.5 88.62 8.26 88.75 8 88.75ZM6.88 82.75C5.39 82.79 4.75 83.46 4.75 85C4.75 86.53 5.39 87.21 6.87 87.25C6.37 85.75 6.37 84.25 6.88 82.75Z" fill="white"/>
<path d="M12.9999 88.75H11.9999C11.7399 88.75 11.4999 88.62 11.3599 88.39C11.2199 88.17 11.2099 87.89 11.3299 87.66C12.2199 85.87 12.2199 84.12 11.3299 82.33C11.2099 82.1 11.2299 81.82 11.3599 81.6C11.4999 81.38 11.7399 81.25 11.9999 81.25H12.9999C15.4199 81.25 16.7499 82.58 16.7499 85C16.7499 87.42 15.4199 88.75 12.9999 88.75ZM13.1199 82.75C13.6199 84.25 13.6199 85.75 13.1199 87.25C14.6099 87.21 15.2399 86.54 15.2399 85C15.2499 83.46 14.6099 82.79 13.1199 82.75Z" fill="white"/>
<path d="M10.5 102.75H9.5C8.47 102.75 7.25 102.36 7.25 100.5V97.5C7.25 95.64 8.47 95.25 9.5 95.25H10.5C11.53 95.25 12.75 95.64 12.75 97.5V100.5C12.75 102.36 11.53 102.75 10.5 102.75ZM9.5 96.75C8.75 96.75 8.75 96.97 8.75 97.5V100.5C8.75 101.03 8.75 101.25 9.5 101.25H10.5C11.25 101.25 11.25 101.03 11.25 100.5V97.5C11.25 96.97 11.25 96.75 10.5 96.75H9.5Z" fill="white"/>
<path d="M21 142.75H9C8.59 142.75 8.25 142.41 8.25 142C8.25 141.59 8.59 141.25 9 141.25H21C21.41 141.25 21.75 141.59 21.75 142C21.75 142.41 21.41 142.75 21 142.75Z" fill="white"/>
<path d="M8.54013 142.71C7.54013 142.71 6.59017 142.32 5.89017 141.61L2.38016 138.1C0.920156 136.64 0.920156 134.26 2.38016 132.8L12.8101 122.37C14.2201 120.96 16.7001 120.96 18.1101 122.37L21.6201 125.88C23.0801 127.34 23.0801 129.72 21.6201 131.18L11.1902 141.61C10.4902 142.33 9.55013 142.71 8.54013 142.71ZM3.44015 137.05L6.95016 140.56C7.80016 141.41 9.29016 141.41 10.1302 140.56L20.5601 130.13C21.4401 129.25 21.4401 127.83 20.5601 126.95L17.0501 123.44C16.2101 122.6 14.7201 122.59 13.8701 123.44L3.44015 133.87C2.56015 134.74 2.56015 136.17 3.44015 137.05Z" fill="white"/>
<path d="M14.87 137.63C14.68 137.63 14.4901 137.56 14.3401 137.41L6.59006 129.66C6.30006 129.37 6.30006 128.89 6.59006 128.6C6.88006 128.31 7.36006 128.31 7.65006 128.6L15.4001 136.35C15.6901 136.64 15.6901 137.12 15.4001 137.41C15.2501 137.56 15.06 137.63 14.87 137.63Z" fill="white"/>
<path d="M3.51999 138.41C3.32999 138.41 3.13996 138.34 2.98996 138.19C2.69996 137.9 2.69996 137.42 2.98996 137.13L8.65 131.47C8.94 131.18 9.41999 131.18 9.70999 131.47C9.99999 131.76 9.99999 132.24 9.70999 132.53L4.04996 138.19C3.89996 138.34 3.70999 138.41 3.51999 138.41Z" fill="white"/>
<path d="M6.33981 141.24C6.14981 141.24 5.95979 141.17 5.80979 141.02C5.51979 140.73 5.51979 140.25 5.80979 139.96L11.4698 134.3C11.7598 134.01 12.2398 134.01 12.5298 134.3C12.8198 134.59 12.8198 135.07 12.5298 135.36L6.86978 141.02C6.72978 141.16 6.53981 141.24 6.33981 141.24Z" fill="white"/>
<path d="M10.4299 18.3699C10.2799 18.3699 10.1399 18.3299 10.0099 18.2399C9.79991 18.0999 9.67991 17.8699 9.67991 17.6199C9.67991 17.4699 9.66991 17.3099 9.64991 17.1499C9.55991 16.4399 9.23991 15.8199 8.69991 15.2799C8.15991 14.7399 7.48991 14.3999 6.76991 14.3099C6.64991 14.2999 6.47991 14.2899 6.31991 14.2999C6.05991 14.3199 5.81991 14.2099 5.66991 13.9999C5.51991 13.7999 5.47991 13.5299 5.55991 13.2899C5.70991 12.8799 5.92991 12.5099 6.18991 12.2099L7.72991 10.2699C10.3799 6.95992 15.7499 2.97992 19.6799 1.39992C20.5099 1.07992 21.3999 1.26992 22.0099 1.86992C22.6399 2.49992 22.8299 3.39992 22.4999 4.21992C20.9199 8.15992 16.9499 13.5199 13.6399 16.1699L11.6699 17.7499C11.2999 18.0199 10.9999 18.1899 10.6999 18.3099C10.6199 18.3499 10.5199 18.3699 10.4299 18.3699ZM7.53991 12.9399C8.37991 13.1599 9.12991 13.5999 9.75991 14.2299C10.3899 14.8499 10.8099 15.5699 11.0199 16.3699L12.7099 15.0099C15.8499 12.4999 19.6199 7.40992 21.1099 3.66992C21.2599 3.29992 21.0499 3.03992 20.9499 2.94992C20.8799 2.87992 20.6199 2.65992 20.2199 2.80992C16.4999 4.30992 11.4099 8.07992 8.88991 11.2199L7.53991 12.9399Z" fill="white"/>
<path d="M4.08011 22.7501C3.33011 22.7501 2.61011 22.4501 2.07011 21.9101C1.45011 21.2901 1.15011 20.4301 1.25011 19.5501L1.52011 17.0901C1.78011 14.6501 3.78011 12.8401 6.26011 12.7901C6.45011 12.7801 6.70011 12.7901 6.93011 12.8101C8.02011 12.9501 8.99011 13.4401 9.77011 14.2201C10.5401 14.9901 11.0001 15.9101 11.1401 16.9401C11.1701 17.1601 11.1901 17.4001 11.1901 17.6101C11.1901 18.9301 10.6801 20.1601 9.76011 21.0901C8.99011 21.8501 8.00011 22.3201 6.88011 22.4601L4.41011 22.7301C4.30011 22.7401 4.19011 22.7501 4.08011 22.7501ZM6.45011 14.3001C6.41011 14.3001 6.36011 14.3001 6.32011 14.3001C4.81011 14.3301 3.21011 15.3601 3.01011 17.2601L2.74011 19.7201C2.69011 20.1401 2.84011 20.5501 3.13011 20.8501C3.42011 21.1401 3.83011 21.2901 4.24011 21.2401L6.70011 20.9701C7.47011 20.8701 8.16011 20.5501 8.68011 20.0301C9.32011 19.3901 9.68011 18.5301 9.68011 17.6101C9.68011 17.4601 9.67011 17.3001 9.65011 17.1401C9.56011 16.4301 9.24011 15.8101 8.70011 15.2701C8.16011 14.7301 7.49011 14.3901 6.77011 14.3001C6.69011 14.3001 6.57011 14.3001 6.45011 14.3001Z" fill="white"/>
<path d="M14.24 15.2202C13.83 15.2202 13.49 14.8802 13.49 14.4702C13.49 12.2702 11.7 10.4902 9.51001 10.4902C9.10001 10.4902 8.76001 10.1502 8.76001 9.74023C8.76001 9.33023 9.09001 8.99023 9.50001 8.99023C12.52 8.99023 14.98 11.4502 14.98 14.4702C14.99 14.8902 14.65 15.2202 14.24 15.2202Z" fill="white"/>
</svg>
